<?xml version="1.0" encoding="UTF-8" standalone="no"?>
<!DOCTYPE svg PUBLIC "-//W3C//DTD SVG 1.1//EN"
 "http://www.w3.org/Graphics/SVG/1.1/DTD/svg11.dtd">
<!-- Generated by graphviz version 2.47.3 (20210619.1520)
 -->
<!-- Title: dependencies Pages: 1 -->
<svg width="1324pt" height="247pt"
 viewBox="0.00 0.00 1324.00 246.80" xmlns="http://www.w3.org/2000/svg" xmlns:xlink="http://www.w3.org/1999/xlink">
<g id="graph0" class="graph" transform="scale(1 1) rotate(0) translate(4 242.8)">
<title>dependencies</title>
<polygon fill="white" stroke="transparent" points="-4,4 -4,-242.8 1320,-242.8 1320,4 -4,4"/>
<text text-anchor="middle" x="658" y="-8.2" font-family="sans-serif" font-size="14.00">dependencies</text>
<g id="clust1" class="cluster">
<title>cluster_AppModule</title>
<polygon fill="none" stroke="black" stroke-dasharray="1,5" points="8,-32.8 8,-230.8 1308,-230.8 1308,-32.8 8,-32.8"/>
</g>
<g id="clust2" class="cluster">
<title>cluster_AppModule_declarations</title>
<polygon fill="none" stroke="black" points="328,-40.8 328,-92.8 1300,-92.8 1300,-40.8 328,-40.8"/>
</g>
<g id="clust10" class="cluster">
<title>cluster_AppModule_imports</title>
<polygon fill="none" stroke="black" points="176,-40.8 176,-92.8 320,-92.8 320,-40.8 176,-40.8"/>
</g>
<g id="clust12" class="cluster">
<title>cluster_AppModule_bootstrap</title>
<polygon fill="none" stroke="black" points="608,-170.8 608,-222.8 732,-222.8 732,-170.8 608,-170.8"/>
</g>
<g id="clust13" class="cluster">
<title>cluster_AppModule_providers</title>
<polygon fill="none" stroke="black" points="16,-40.8 16,-92.8 168,-92.8 168,-40.8 16,-40.8"/>
</g>
<!-- AdminComponent -->
<g id="node1" class="node">
<title>AdminComponent</title>
<polygon fill="#ffffb3" stroke="black" points="1292.22,-84.8 1171.78,-84.8 1171.78,-48.8 1292.22,-48.8 1292.22,-84.8"/>
<text text-anchor="middle" x="1232" y="-62.6" font-family="Times,serif" font-size="14.00">AdminComponent</text>
</g>
<!-- AppModule -->
<g id="node8" class="node">
<title>AppModule</title>
<polygon fill="#8dd3c7" stroke="black" points="711.66,-149.8 708.66,-153.8 687.66,-153.8 684.66,-149.8 628.34,-149.8 628.34,-113.8 711.66,-113.8 711.66,-149.8"/>
<text text-anchor="middle" x="670" y="-127.6" font-family="Times,serif" font-size="14.00">AppModule</text>
</g>
<!-- AdminComponent&#45;&gt;AppModule -->
<g id="edge1" class="edge">
<title>AdminComponent&#45;&gt;AppModule</title>
<path fill="none" stroke="black" d="M1232,-84.81C1232,-107.29 1232,-142.8 1232,-142.8 1232,-142.8 721.78,-142.8 721.78,-142.8"/>
<polygon fill="black" stroke="black" points="721.78,-139.3 711.78,-142.8 721.78,-146.3 721.78,-139.3"/>
</g>
<!-- AppComponent -->
<g id="node2" class="node">
<title>AppComponent</title>
<polygon fill="#ffffb3" stroke="black" points="1153.94,-84.8 1048.06,-84.8 1048.06,-48.8 1153.94,-48.8 1153.94,-84.8"/>
<text text-anchor="middle" x="1101" y="-62.6" font-family="Times,serif" font-size="14.00">AppComponent</text>
</g>
<!-- AppComponent&#45;&gt;AppModule -->
<g id="edge2" class="edge">
<title>AppComponent&#45;&gt;AppModule</title>
<path fill="none" stroke="black" d="M1101,-84.93C1101,-105.37 1101,-135.8 1101,-135.8 1101,-135.8 721.72,-135.8 721.72,-135.8"/>
<polygon fill="black" stroke="black" points="721.72,-132.3 711.72,-135.8 721.72,-139.3 721.72,-132.3"/>
</g>
<!-- DashboardComponent -->
<g id="node3" class="node">
<title>DashboardComponent</title>
<polygon fill="#ffffb3" stroke="black" points="1029.97,-84.8 888.03,-84.8 888.03,-48.8 1029.97,-48.8 1029.97,-84.8"/>
<text text-anchor="middle" x="959" y="-62.6" font-family="Times,serif" font-size="14.00">DashboardComponent</text>
</g>
<!-- DashboardComponent&#45;&gt;AppModule -->
<g id="edge3" class="edge">
<title>DashboardComponent&#45;&gt;AppModule</title>
<path fill="none" stroke="black" d="M959,-85.07C959,-103.36 959,-128.8 959,-128.8 959,-128.8 721.71,-128.8 721.71,-128.8"/>
<polygon fill="black" stroke="black" points="721.71,-125.3 711.71,-128.8 721.71,-132.3 721.71,-125.3"/>
</g>
<!-- DragdropDirective -->
<g id="node4" class="node">
<title>DragdropDirective</title>
<polygon fill="#ffffb3" stroke="black" points="869.73,-84.8 748.27,-84.8 748.27,-48.8 869.73,-48.8 869.73,-84.8"/>
<text text-anchor="middle" x="809" y="-62.6" font-family="Times,serif" font-size="14.00">DragdropDirective</text>
</g>
<!-- DragdropDirective&#45;&gt;AppModule -->
<g id="edge4" class="edge">
<title>DragdropDirective&#45;&gt;AppModule</title>
<path fill="none" stroke="black" d="M809,-84.81C809,-100.85 809,-121.8 809,-121.8 809,-121.8 721.7,-121.8 721.7,-121.8"/>
<polygon fill="black" stroke="black" points="721.7,-118.3 711.7,-121.8 721.7,-125.3 721.7,-118.3"/>
</g>
<!-- ImportComponent -->
<g id="node5" class="node">
<title>ImportComponent</title>
<polygon fill="#ffffb3" stroke="black" points="729.94,-84.8 610.06,-84.8 610.06,-48.8 729.94,-48.8 729.94,-84.8"/>
<text text-anchor="middle" x="670" y="-62.6" font-family="Times,serif" font-size="14.00">ImportComponent</text>
</g>
<!-- ImportComponent&#45;&gt;AppModule -->
<g id="edge5" class="edge">
<title>ImportComponent&#45;&gt;AppModule</title>
<path fill="none" stroke="black" d="M670,-84.91C670,-84.91 670,-103.79 670,-103.79"/>
<polygon fill="black" stroke="black" points="666.5,-103.79 670,-113.79 673.5,-103.79 666.5,-103.79"/>
</g>
<!-- LoginComponent -->
<g id="node6" class="node">
<title>LoginComponent</title>
<polygon fill="#ffffb3" stroke="black" points="592.28,-84.8 477.72,-84.8 477.72,-48.8 592.28,-48.8 592.28,-84.8"/>
<text text-anchor="middle" x="535" y="-62.6" font-family="Times,serif" font-size="14.00">LoginComponent</text>
</g>
<!-- LoginComponent&#45;&gt;AppModule -->
<g id="edge6" class="edge">
<title>LoginComponent&#45;&gt;AppModule</title>
<path fill="none" stroke="black" d="M535,-84.81C535,-100.85 535,-121.8 535,-121.8 535,-121.8 618.03,-121.8 618.03,-121.8"/>
<polygon fill="black" stroke="black" points="618.03,-125.3 628.03,-121.8 618.03,-118.3 618.03,-125.3"/>
</g>
<!-- ReviewComponent -->
<g id="node7" class="node">
<title>ReviewComponent</title>
<polygon fill="#ffffb3" stroke="black" points="460.1,-84.8 335.9,-84.8 335.9,-48.8 460.1,-48.8 460.1,-84.8"/>
<text text-anchor="middle" x="398" y="-62.6" font-family="Times,serif" font-size="14.00">ReviewComponent</text>
</g>
<!-- ReviewComponent&#45;&gt;AppModule -->
<g id="edge7" class="edge">
<title>ReviewComponent&#45;&gt;AppModule</title>
<path fill="none" stroke="black" d="M398,-85.07C398,-103.36 398,-128.8 398,-128.8 398,-128.8 618.1,-128.8 618.1,-128.8"/>
<polygon fill="black" stroke="black" points="618.1,-132.3 628.1,-128.8 618.1,-125.3 618.1,-132.3"/>
</g>
<!-- AppComponent  -->
<g id="node10" class="node">
<title>AppComponent </title>
<polygon fill="#80b1d3" stroke="black" points="724.44,-214.8 615.56,-214.8 615.56,-178.8 724.44,-178.8 724.44,-214.8"/>
<text text-anchor="middle" x="670" y="-192.6" font-family="Times,serif" font-size="14.00">AppComponent </text>
</g>
<!-- AppModule&#45;&gt;AppComponent  -->
<g id="edge9" class="edge">
<title>AppModule&#45;&gt;AppComponent </title>
<path fill="none" stroke="black" stroke-dasharray="1,5" d="M670,-149.91C670,-149.91 670,-168.79 670,-168.79"/>
<polygon fill="black" stroke="black" points="666.5,-168.79 670,-178.79 673.5,-168.79 666.5,-168.79"/>
</g>
<!-- AppRoutingModule -->
<g id="node9" class="node">
<title>AppRoutingModule</title>
<polygon fill="#8dd3c7" stroke="black" points="312.27,-84.8 309.27,-88.8 288.27,-88.8 285.27,-84.8 183.73,-84.8 183.73,-48.8 312.27,-48.8 312.27,-84.8"/>
<text text-anchor="middle" x="248" y="-62.6" font-family="Times,serif" font-size="14.00">AppRoutingModule</text>
</g>
<!-- AppRoutingModule&#45;&gt;AppModule -->
<g id="edge8" class="edge">
<title>AppRoutingModule&#45;&gt;AppModule</title>
<path fill="none" stroke="black" d="M248,-84.93C248,-105.37 248,-135.8 248,-135.8 248,-135.8 617.99,-135.8 617.99,-135.8"/>
<polygon fill="black" stroke="black" points="617.99,-139.3 627.99,-135.8 617.99,-132.3 617.99,-139.3"/>
</g>
<!-- UploadService -->
<g id="node11" class="node">
<title>UploadService</title>
<ellipse fill="#fdb462" stroke="black" cx="92" cy="-66.8" rx="68.34" ry="18"/>
<text text-anchor="middle" x="92" y="-62.6" font-family="Times,serif" font-size="14.00">UploadService</text>
</g>
<!-- UploadService&#45;&gt;AppModule -->
<g id="edge10" class="edge">
<title>UploadService&#45;&gt;AppModule</title>
<path fill="none" stroke="black" d="M92,-84.81C92,-107.29 92,-142.8 92,-142.8 92,-142.8 617.97,-142.8 617.97,-142.8"/>
<polygon fill="black" stroke="black" points="617.97,-146.3 627.97,-142.8 617.97,-139.3 617.97,-146.3"/>
</g>
</g>
</svg>
