<?xml version="1.0" encoding="UTF-8" standalone="no"?>
<!DOCTYPE svg PUBLIC "-//W3C//DTD SVG 1.1//EN"
 "http://www.w3.org/Graphics/SVG/1.1/DTD/svg11.dtd">
<!-- Generated by graphviz version 2.47.3 (20210619.1520)
 -->
<!-- Title: dependencies Pages: 1 -->
<svg width="1324pt" height="247pt"
 viewBox="0.00 0.00 1324.00 246.80" xmlns="http://www.w3.org/2000/svg" xmlns:xlink="http://www.w3.org/1999/xlink">
<g id="graph0" class="graph" transform="scale(1 1) rotate(0) translate(4 242.8)">
<title>dependencies</title>
<polygon fill="white" stroke="transparent" points="-4,4 -4,-242.8 1320,-242.8 1320,4 -4,4"/>
<text text-anchor="middle" x="658" y="-8.2" font-family="sans-serif" font-size="14.00">dependencies</text>
<g id="clust1" class="cluster">
<title>cluster_AppModule</title>
<polygon fill="none" stroke="black" stroke-dasharray="1,5" points="8,-32.8 8,-230.8 1308,-230.8 1308,-32.8 8,-32.8"/>
</g>
<g id="clust13" class="cluster">
<title>cluster_AppModule_providers</title>
<polygon fill="none" stroke="black" points="1148,-40.8 1148,-92.8 1300,-92.8 1300,-40.8 1148,-40.8"/>
</g>
<g id="clust10" class="cluster">
<title>cluster_AppModule_imports</title>
<polygon fill="none" stroke="black" points="996,-40.8 996,-92.8 1140,-92.8 1140,-40.8 996,-40.8"/>
</g>
<g id="clust12" class="cluster">
<title>cluster_AppModule_bootstrap</title>
<polygon fill="none" stroke="black" points="585,-170.8 585,-222.8 709,-222.8 709,-170.8 585,-170.8"/>
</g>
<g id="clust2" class="cluster">
<title>cluster_AppModule_declarations</title>
<polygon fill="none" stroke="black" points="16,-40.8 16,-92.8 988,-92.8 988,-40.8 16,-40.8"/>
</g>
<!-- AdminComponent -->
<g id="node1" class="node">
<title>AdminComponent</title>
<polygon fill="#ffffb3" stroke="black" points="980.22,-84.8 859.78,-84.8 859.78,-48.8 980.22,-48.8 980.22,-84.8"/>
<text text-anchor="middle" x="920" y="-62.6" font-family="Times,serif" font-size="14.00">AdminComponent</text>
</g>
<!-- AppModule -->
<g id="node8" class="node">
<title>AppModule</title>
<polygon fill="#8dd3c7" stroke="black" points="688.66,-149.8 685.66,-153.8 664.66,-153.8 661.66,-149.8 605.34,-149.8 605.34,-113.8 688.66,-113.8 688.66,-149.8"/>
<text text-anchor="middle" x="647" y="-127.6" font-family="Times,serif" font-size="14.00">AppModule</text>
</g>
<!-- AdminComponent&#45;&gt;AppModule -->
<g id="edge1" class="edge">
<title>AdminComponent&#45;&gt;AppModule</title>
<path fill="none" stroke="black" d="M920,-85.07C920,-103.36 920,-128.8 920,-128.8 920,-128.8 698.76,-128.8 698.76,-128.8"/>
<polygon fill="black" stroke="black" points="698.76,-125.3 688.76,-128.8 698.76,-132.3 698.76,-125.3"/>
</g>
<!-- AppComponent -->
<g id="node2" class="node">
<title>AppComponent</title>
<polygon fill="#ffffb3" stroke="black" points="841.94,-84.8 736.06,-84.8 736.06,-48.8 841.94,-48.8 841.94,-84.8"/>
<text text-anchor="middle" x="789" y="-62.6" font-family="Times,serif" font-size="14.00">AppComponent</text>
</g>
<!-- AppComponent&#45;&gt;AppModule -->
<g id="edge2" class="edge">
<title>AppComponent&#45;&gt;AppModule</title>
<path fill="none" stroke="black" d="M789,-84.81C789,-100.85 789,-121.8 789,-121.8 789,-121.8 698.84,-121.8 698.84,-121.8"/>
<polygon fill="black" stroke="black" points="698.84,-118.3 688.84,-121.8 698.84,-125.3 698.84,-118.3"/>
</g>
<!-- DashboardComponent -->
<g id="node3" class="node">
<title>DashboardComponent</title>
<polygon fill="#ffffb3" stroke="black" points="717.97,-84.8 576.03,-84.8 576.03,-48.8 717.97,-48.8 717.97,-84.8"/>
<text text-anchor="middle" x="647" y="-62.6" font-family="Times,serif" font-size="14.00">DashboardComponent</text>
</g>
<!-- DashboardComponent&#45;&gt;AppModule -->
<g id="edge3" class="edge">
<title>DashboardComponent&#45;&gt;AppModule</title>
<path fill="none" stroke="black" d="M647,-84.91C647,-84.91 647,-103.79 647,-103.79"/>
<polygon fill="black" stroke="black" points="643.5,-103.79 647,-113.79 650.5,-103.79 643.5,-103.79"/>
</g>
<!-- DragdropDirective -->
<g id="node4" class="node">
<title>DragdropDirective</title>
<polygon fill="#ffffb3" stroke="black" points="557.73,-84.8 436.27,-84.8 436.27,-48.8 557.73,-48.8 557.73,-84.8"/>
<text text-anchor="middle" x="497" y="-62.6" font-family="Times,serif" font-size="14.00">DragdropDirective</text>
</g>
<!-- DragdropDirective&#45;&gt;AppModule -->
<g id="edge4" class="edge">
<title>DragdropDirective&#45;&gt;AppModule</title>
<path fill="none" stroke="black" d="M497,-84.81C497,-100.85 497,-121.8 497,-121.8 497,-121.8 595.22,-121.8 595.22,-121.8"/>
<polygon fill="black" stroke="black" points="595.22,-125.3 605.22,-121.8 595.22,-118.3 595.22,-125.3"/>
</g>
<!-- ImportComponent -->
<g id="node5" class="node">
<title>ImportComponent</title>
<polygon fill="#ffffb3" stroke="black" points="417.94,-84.8 298.06,-84.8 298.06,-48.8 417.94,-48.8 417.94,-84.8"/>
<text text-anchor="middle" x="358" y="-62.6" font-family="Times,serif" font-size="14.00">ImportComponent</text>
</g>
<!-- ImportComponent&#45;&gt;AppModule -->
<g id="edge5" class="edge">
<title>ImportComponent&#45;&gt;AppModule</title>
<path fill="none" stroke="black" d="M358,-85.07C358,-103.36 358,-128.8 358,-128.8 358,-128.8 595.29,-128.8 595.29,-128.8"/>
<polygon fill="black" stroke="black" points="595.29,-132.3 605.29,-128.8 595.29,-125.3 595.29,-132.3"/>
</g>
<!-- LoginComponent -->
<g id="node6" class="node">
<title>LoginComponent</title>
<polygon fill="#ffffb3" stroke="black" points="280.28,-84.8 165.72,-84.8 165.72,-48.8 280.28,-48.8 280.28,-84.8"/>
<text text-anchor="middle" x="223" y="-62.6" font-family="Times,serif" font-size="14.00">LoginComponent</text>
</g>
<!-- LoginComponent&#45;&gt;AppModule -->
<g id="edge6" class="edge">
<title>LoginComponent&#45;&gt;AppModule</title>
<path fill="none" stroke="black" d="M223,-84.93C223,-105.37 223,-135.8 223,-135.8 223,-135.8 595.18,-135.8 595.18,-135.8"/>
<polygon fill="black" stroke="black" points="595.18,-139.3 605.18,-135.8 595.18,-132.3 595.18,-139.3"/>
</g>
<!-- ReviewComponent -->
<g id="node7" class="node">
<title>ReviewComponent</title>
<polygon fill="#ffffb3" stroke="black" points="148.1,-84.8 23.9,-84.8 23.9,-48.8 148.1,-48.8 148.1,-84.8"/>
<text text-anchor="middle" x="86" y="-62.6" font-family="Times,serif" font-size="14.00">ReviewComponent</text>
</g>
<!-- ReviewComponent&#45;&gt;AppModule -->
<g id="edge7" class="edge">
<title>ReviewComponent&#45;&gt;AppModule</title>
<path fill="none" stroke="black" d="M86,-84.81C86,-107.29 86,-142.8 86,-142.8 86,-142.8 595.29,-142.8 595.29,-142.8"/>
<polygon fill="black" stroke="black" points="595.29,-146.3 605.29,-142.8 595.29,-139.3 595.29,-146.3"/>
</g>
<!-- AppComponent  -->
<g id="node10" class="node">
<title>AppComponent </title>
<polygon fill="#80b1d3" stroke="black" points="701.44,-214.8 592.56,-214.8 592.56,-178.8 701.44,-178.8 701.44,-214.8"/>
<text text-anchor="middle" x="647" y="-192.6" font-family="Times,serif" font-size="14.00">AppComponent </text>
</g>
<!-- AppModule&#45;&gt;AppComponent  -->
<g id="edge9" class="edge">
<title>AppModule&#45;&gt;AppComponent </title>
<path fill="none" stroke="black" stroke-dasharray="1,5" d="M647,-149.91C647,-149.91 647,-168.79 647,-168.79"/>
<polygon fill="black" stroke="black" points="643.5,-168.79 647,-178.79 650.5,-168.79 643.5,-168.79"/>
</g>
<!-- AppRoutingModule -->
<g id="node9" class="node">
<title>AppRoutingModule</title>
<polygon fill="#8dd3c7" stroke="black" points="1132.27,-84.8 1129.27,-88.8 1108.27,-88.8 1105.27,-84.8 1003.73,-84.8 1003.73,-48.8 1132.27,-48.8 1132.27,-84.8"/>
<text text-anchor="middle" x="1068" y="-62.6" font-family="Times,serif" font-size="14.00">AppRoutingModule</text>
</g>
<!-- AppRoutingModule&#45;&gt;AppModule -->
<g id="edge8" class="edge">
<title>AppRoutingModule&#45;&gt;AppModule</title>
<path fill="none" stroke="black" d="M1068,-84.93C1068,-105.37 1068,-135.8 1068,-135.8 1068,-135.8 698.91,-135.8 698.91,-135.8"/>
<polygon fill="black" stroke="black" points="698.91,-132.3 688.91,-135.8 698.91,-139.3 698.91,-132.3"/>
</g>
<!-- UploadService -->
<g id="node11" class="node">
<title>UploadService</title>
<ellipse fill="#fdb462" stroke="black" cx="1224" cy="-66.8" rx="68.34" ry="18"/>
<text text-anchor="middle" x="1224" y="-62.6" font-family="Times,serif" font-size="14.00">UploadService</text>
</g>
<!-- UploadService&#45;&gt;AppModule -->
<g id="edge10" class="edge">
<title>UploadService&#45;&gt;AppModule</title>
<path fill="none" stroke="black" d="M1224,-84.81C1224,-107.29 1224,-142.8 1224,-142.8 1224,-142.8 698.96,-142.8 698.96,-142.8"/>
<polygon fill="black" stroke="black" points="698.96,-139.3 688.96,-142.8 698.96,-146.3 698.96,-139.3"/>
</g>
</g>
</svg>
